<?xml version="1.0" standalone="no"?>
<!DOCTYPE svg PUBLIC "-//W3C//DTD SVG 20010904//EN"
 "http://www.w3.org/TR/2001/REC-SVG-20010904/DTD/svg10.dtd">
<svg version="1.0" xmlns="http://www.w3.org/2000/svg"
 width="900.000000pt" height="503.000000pt" viewBox="0 0 900.000000 503.000000"
 preserveAspectRatio="xMidYMid meet">

<g transform="translate(0.000000,503.000000) scale(0.100000,-0.100000)"
fill="#000000" stroke="none">
<path d="M4275 5014 c-456 -68 -748 -298 -868 -679 -36 -117 -45 -194 -52
-456 l-6 -237 -38 -39 c-53 -57 -66 -110 -65 -268 1 -99 6 -149 23 -210 39
-146 147 -337 255 -455 20 -21 42 -62 55 -105 56 -171 176 -363 301 -479 112
-103 216 -164 360 -212 76 -25 99 -28 220 -28 121 0 144 3 220 28 144 48 248
109 360 212 125 116 245 308 300 479 15 47 36 84 61 112 109 119 209 297 250
448 18 63 23 108 23 210 1 159 -12 212 -66 269 l-40 41 7 100 c13 195 -28 453
-93 581 -17 33 -48 78 -69 100 -30 31 -42 53 -52 99 -57 262 -280 415 -706
485 -137 23 -250 24 -380 4z"/>
<path d="M3520 2158 c-353 -139 -767 -322 -883 -389 -165 -96 -311 -231 -413
-385 -67 -100 -151 -276 -198 -412 l-36 -104 0 -303 c0 -279 1 -303 18 -310
248 -96 535 -166 926 -225 l200 -30 1321 0 1321 0 205 30 c333 48 585 105 803
180 205 71 226 88 226 180 0 70 -34 289 -61 400 -72 290 -213 572 -369 743
-175 190 -356 289 -1016 557 l-242 98 -67 -85 c-252 -317 -653 -471 -1000
-384 -227 57 -449 206 -604 404 -29 37 -54 67 -54 66 -1 -1 -36 -14 -77 -31z"/>
</g>
</svg>
